<svg xmlns="http://www.w3.org/2000/svg" viewBox="0 0 160 160">
  <g transform="translate(-5.84,-13.97) scale(1.0225)">
    <g transform="translate(0,159) scale(0.01,-0.01)" fill="#717986" stroke="none">
      <path d="M8272 11803 c-851 -1738 -1276 -3520 -1277 -5353 0 -1765 390 -3363
1143 -4672 98 -170 254 -418 262 -418 26 0 351 568 495 864 1150 2362 1220
5407 193 8256 -183 507 -649 1570 -688 1570 -4 0 -61 -111 -128 -247z M3267
9878 c-218 -3481 921 -6513 2983 -7940 163 -113 476 -296 487 -285 10 11 33
299 44 578 l13 285 -61 165 c-378 1021 -583 2095 -639 3334 l-7 150 -72 170
c-413 967 -938 1801 -1629 2585 -279 316 -827 840 -1097 1048 -14 11 -17 1
-22 -90z M13370 9850 c-1142 -971 -1994 -2129 -2585 -3515 l-72 -170 -7 -150
c-56 -1247 -271 -2358 -652 -3372 l-48 -126 13 -291 c12 -286 34 -562 45 -573
18 -18 433 241 661 412 1486 1115 2490 3148 2759 5585 77 691 96 1631 48 2248
l-7 83 -155 -131z M1072 7953 c604 -2258 1691 -4117 2888 -4944 l35 -24 -16
25 c-759 1172 -1221 2397 -1468 3890 -24 144 -46 249 -54 255 -406 315 -832
579 -1236 765 -83 39 -153 70 -155 70 -3 0 0 -17 6 -37z M15570 7916 c-440
-206 -1228 -707 -1245 -791 -2 -11 -16 -96 -30 -190 -222 -1441 -714 -2752
-1474 -3925 -21 -32 -14 -28 113 69 1186 894 2204 2669 2794 4874 13 46 26 49
-158 -37z"/>
    </g>
  </g>
</svg>