<svg xmlns="http://www.w3.org/2000/svg" viewBox="0 0 48 48" fill="none">
  <path d="M24.5 5C28 12 35 16.5 35 26.5C35 33.4 30.1 39 23.8 39C17.5 39 12.8 33.4 13 26.5C13.2 20.4 17.6 16.6 19.3 11.5C20.5 14.2 22.3 15.2 23.3 14.4C24.3 13.5 24.2 9 24.5 5Z" fill="#F6BC8F"/>
  <path d="M23.8 39C30.1 39 35 33.4 35 26.5C35 22.3 33.8 19 32.1 15.9C33.7 25.6 30.8 36.3 21.5 38.8C22.2 38.9 23 39 23.8 39Z" fill="#EFA572"/>
  <path d="M24 21.5C26.1 25 29.5 26.5 29.5 30.3C29.5 33.6 27 36 24 36C21 36 18.5 33.6 18.5 30.3C18.5 26.5 21.9 25 24 21.5Z" fill="#FBE3C4"/>
</svg>
