<svg xmlns="http://www.w3.org/2000/svg" viewBox="0 0 48 48" fill="none">
  <g stroke="#A4D6CC" stroke-width="4" stroke-linecap="round">
    <path d="M24 9.5V13"/><path d="M24 35V38.5"/><path d="M9.5 24H13"/><path d="M35 24H38.5"/>
    <path d="M13.8 13.8L16.2 16.2"/><path d="M31.8 31.8L34.2 34.2"/>
    <path d="M34.2 13.8L31.8 16.2"/><path d="M16.2 31.8L13.8 34.2"/>
  </g>
  <circle cx="24" cy="24" r="11" fill="#A4D6CC"/>
  <path d="M24 35C30.1 35 35 30.1 35 24C35 21.8 34.4 19.8 33.3 18.1C34 27 29 33 24.5 34.9C24.3 35 24.2 35 24 35Z" fill="#8CC4B8"/>
  <circle cx="20.5" cy="21.5" r="2.6" fill="#7DBDB1"/>
  <circle cx="27.5" cy="26" r="3.1" fill="#7DBDB1"/>
  <circle cx="22.5" cy="28.5" r="1.7" fill="#7DBDB1"/>
</svg>
